<?xml version="1.0" standalone="no"?>
<!DOCTYPE svg PUBLIC "-//W3C//DTD SVG 20010904//EN"
 "http://www.w3.org/TR/2001/REC-SVG-20010904/DTD/svg10.dtd">
<svg version="1.0" xmlns="http://www.w3.org/2000/svg"
 width="550.000000pt" height="550.000000pt" viewBox="0 0 550.000000 550.000000"
 preserveAspectRatio="xMidYMid meet">
<metadata>
Created by potrace 1.14, written by Peter Selinger 2001-2017
</metadata>
<g transform="translate(0.000000,550.000000) scale(0.100000,-0.100000)"
fill="#000000" stroke="none">
<path d="M2133 4950 c-99 -26 -234 -72 -333 -113 l-32 -14 63 -7 c35 -4 104
-20 152 -37 49 -16 90 -29 92 -29 2 0 23 28 46 62 24 34 66 86 94 115 28 29
46 53 41 53 -6 -1 -62 -14 -123 -30z"/>
<path d="M3295 4916 c33 -35 75 -90 94 -122 19 -33 40 -69 47 -81 l13 -21 68
28 c73 31 199 60 260 60 l38 1 -36 19 c-101 54 -392 153 -509 174 l-35 6 60
-64z"/>
<path d="M942 4221 c-87 -98 -175 -214 -236 -310 -65 -100 -66 -107 -13 -71
57 38 156 83 222 100 28 7 54 16 58 20 4 4 10 56 12 116 2 60 10 135 18 167 8
31 13 57 12 57 -2 0 -34 -35 -73 -79z"/>
<path d="M4555 4200 c4 -14 9 -88 11 -165 2 -77 4 -143 4 -146 0 -3 22 -11 49
-18 64 -16 164 -64 224 -107 27 -20 51 -34 53 -32 15 16 -253 406 -322 468
l-27 25 8 -25z"/>
<path d="M1340 3110 l0 -200 85 0 85 0 0 -320 0 -320 -54 0 c-29 0 -81 -3
-115 -6 l-61 -7 0 -172 0 -172 120 -5 c65 -3 313 -3 550 0 l430 5 -2 181 -3
181 -115 5 -115 5 -2 175 -3 175 195 -197 194 -198 138 -6 c76 -4 164 -4 195
0 57 7 57 8 150 109 50 56 134 147 185 201 l93 99 0 -181 0 -182 -100 0 -100
0 0 -189 0 -188 413 -5 c226 -3 474 -3 550 0 l137 5 0 183 0 184 -38 0 c-22 0
-73 3 -115 6 l-77 7 0 313 0 314 125 0 125 0 0 200 0 200 -477 -1 -478 0 -143
-157 c-146 -161 -223 -244 -317 -343 l-54 -57 -169 177 c-93 97 -211 222 -262
279 l-93 102 -439 0 -438 0 0 -200z"/>
<path d="M352 2993 c-33 -199 -39 -517 -13 -698 l7 -50 16 72 c28 116 90 238
169 330 l28 33 -50 66 c-62 82 -85 128 -119 232 l-27 83 -11 -68z"/>
<path d="M5136 2927 c-7 -40 -74 -178 -108 -224 -12 -17 -37 -49 -55 -71 l-32
-39 41 -54 c77 -103 145 -273 149 -373 2 -50 26 86 38 214 14 147 14 290 0
443 -11 128 -22 162 -33 104z"/>
<path d="M519 1638 c19 -51 105 -215 158 -303 82 -136 210 -299 333 -426 106
-110 109 -112 69 -52 -82 126 -119 256 -122 427 l-2 110 -93 32 c-120 41 -189
83 -279 168 -54 51 -71 63 -64 44z"/>
<path d="M4875 1509 c-103 -89 -182 -128 -355 -177 -33 -9 -33 -10 -7 -11 33
-1 33 -4 2 -45 -17 -23 -25 -45 -25 -75 0 -136 -80 -342 -174 -451 -11 -13 17
9 63 50 146 130 295 304 409 480 49 76 169 291 160 289 -1 0 -34 -27 -73 -60z"/>
<path d="M1410 576 c0 -7 181 -112 267 -155 246 -122 577 -218 818 -236 l80
-6 -75 24 c-166 51 -321 166 -415 308 -45 67 -57 75 -89 63 -12 -5 -13 -10 -5
-25 11 -21 3 -24 -33 -10 -15 5 -47 4 -88 -5 -128 -27 -309 -13 -422 31 -21 8
-38 13 -38 11z"/>
<path d="M3345 506 c-54 -81 -179 -195 -262 -239 -92 -48 -141 -66 -228 -82
-90 -17 -42 -19 115 -4 316 29 614 117 900 265 148 77 165 90 79 62 -87 -29
-324 -32 -411 -5 -42 13 -63 15 -83 7 -23 -9 -26 -8 -21 8 5 13 -1 22 -19 30
-14 7 -28 12 -30 12 -2 0 -20 -24 -40 -54z"/>
</g>
</svg>
